<?xml version="1.0" encoding="UTF-8"?>
<svg id="Layer_2" xmlns="http://www.w3.org/2000/svg" viewBox="0 0 512 380.46">
  <defs>
    <style>
      .cls-1 {
        fill: #d63447;
      }

      .cls-1, .cls-2 {
        fill-rule: evenodd;
      }

      .cls-2 {
        fill: #515151;
      }
    </style>
  </defs>
  <path class="cls-1" d="M302.33,150.96c28.27-18.15,62.32-18.15,88.66,0,66.49,44.32,34.37,146.95-44.33,146.95s-110.81-102.62-44.33-146.95h0Z"/>
  <path class="cls-2" d="M483.74,62.47h-36.3l-8.03-44.33c-1.93-10.12-12.21-18.14-22.16-18.14h-153.21c-12.2,0-20.24,8.03-24.41,18.14l-8.03,44.33h-72.59l-5.78-12.21c0-14.13-24.41-18.15-38.54-18.15-19.92,0-44.33-4.01-60.39,4.01-14.13,8.03-8.03,14.13-14.13,26.34h-11.89c-16.38,1.93-28.26,13.97-28.26,30.03v257.77c0,16.22,14.13,30.19,32.12,30.19h449.69c16.06,0,30.19-13.97,30.19-30.19V92.51c0-16.06-12.2-30.03-28.26-30.03ZM138.83,132.82c-11.89,0-24.09,2.09-32.12-8.03-18.31-14.14-6.1-42.24,18.31-42.24,13.81,0,24.09,0,34.05,8.03,4.17,4.01,8.03,9.96,8.03,18.15,0,14.14-11.88,24.09-28.26,24.09ZM453.61,259.69c-12.2,30.2-34.37,52.36-62.63,64.56-28.27,12.05-58.46,12.05-86.73,0-30.19-12.2-52.36-34.37-64.56-64.56-9.95-26.18-9.95-58.46,0-84.64,12.21-30.19,34.37-52.19,64.56-64.4,20.24-8.03,44.33-10.12,64.56-6.1,8.03,2.09,14.13,4.17,22.16,6.1,28.26,12.21,50.43,34.21,62.63,64.4,11.89,26.18,11.89,58.46,0,84.64Z"/>
</svg>