<?xml version="1.0" encoding="UTF-8"?>
<svg xmlns="http://www.w3.org/2000/svg" version="1.1" viewBox="0 0 512 512">
  <defs>
    <style>
      .cls-1, .cls-2 {
        fill: #d63447;
      }

      .cls-3, .cls-4 {
        fill: #515151;
      }

      .cls-2, .cls-4 {
        fill-rule: evenodd;
      }
    </style>
  </defs>
  <!-- Generator: Adobe Illustrator 28.6.0, SVG Export Plug-In . SVG Version: 1.2.0 Build 709)  -->
  <g>
    <g id="Layer_2">
      <g>
        <path class="cls-4" d="M392.6,434.4v42.4c0,1-1,1.4-1.9,1.4H1.4C1,478.2,0,477.8,0,476.8v-42.4h392.6Z"/>
        <polygon class="cls-4" points="511.5 456.6 452.3 467.6 392.6 478.2 392.6 456.6 392.6 434.4 452.3 445.5 511.5 456.6"/>
        <polygon class="cls-4" points="512 456.6 501.4 458.5 490.8 460.4 490.8 456.6 490.8 452.7 501.4 454.6 512 456.6"/>
        <path class="cls-4" d="M104,52v361.3h408V52H104ZM489.9,393.5H126.2V71.7h363.6v321.8Z"/>
        <rect class="cls-1" x="158.5" y="127.6" width="54.9" height="54.9"/>
        <rect class="cls-3" x="220.6" y="164.2" width="54.9" height="54.4"/>
        <rect class="cls-1" x="283.2" y="200.3" width="54.4" height="54.4"/>
        <rect class="cls-3" x="345.3" y="236.4" width="54.4" height="54.9"/>
        <path class="cls-4" d="M48.2,52C21.7,52,0,73.6,0,99.6v265.9C0,392,21.7,413.2,48.2,413.2h55.9V52h-55.9ZM73.2,112.7c7.7,0,14.5,6.3,14.5,14.4s-6.8,14-14.5,14-14.4-6.3-14.4-14,6.3-14.4,14.4-14.4ZM73.2,157.4c7.7,0,14.5,6.8,14.5,14.5s-6.8,14.4-14.5,14.4-14.4-6.3-14.4-14.4,6.3-14.5,14.4-14.5ZM27,112.7c7.7,0,14.5,6.3,14.5,14.4s-6.7,14-14.5,14-14.4-6.3-14.4-14,6.3-14.4,14.4-14.4ZM27,157.4c7.7,0,14.5,6.8,14.5,14.5s-6.7,14.4-14.5,14.4-14.4-6.3-14.4-14.4,6.3-14.5,14.4-14.5ZM27,367c-8.2,0-14.4-6.7-14.4-14.4s6.3-14.5,14.4-14.5,14.5,6.3,14.5,14.5-6.7,14.4-14.5,14.4ZM27,321.7c-8.2,0-14.4-6.3-14.4-14.4s6.3-14.5,14.4-14.5,14.5,6.7,14.5,14.5-6.7,14.4-14.5,14.4ZM73.2,367c-8.2,0-14.4-6.7-14.4-14.4s6.3-14.5,14.4-14.5,14.5,6.3,14.5,14.5-6.8,14.4-14.5,14.4ZM73.2,321.7c-8.2,0-14.4-6.3-14.4-14.4s6.3-14.5,14.4-14.5,14.5,6.7,14.5,14.5-6.8,14.4-14.5,14.4ZM90.6,280.3H9.1v-81.4h81.4v81.4Z"/>
        <path class="cls-2" d="M23.6,213.3v53h53v-53H23.6ZM67.4,257.2h-34.7v-34.7h34.7v34.7Z"/>
        <rect class="cls-3" x="446.5" y="353" width="31.3" height="31.3"/>
        <rect class="cls-1" x="406.5" y="353" width="31.3" height="31.3"/>
        <rect class="cls-3" x="367" y="353" width="30.8" height="31.3"/>
      </g>
    </g>
  </g>
</svg>