<?xml version="1.0" encoding="UTF-8"?>
<svg xmlns="http://www.w3.org/2000/svg" version="1.1" viewBox="0 0 512 512">
  <defs>
    <style>
      .cls-1 {
        fill: #d63447;
      }

      .cls-1, .cls-2 {
        fill-rule: evenodd;
      }

      .cls-2 {
        fill: #515151;
      }
    </style>
  </defs>
  <!-- Generator: Adobe Illustrator 28.6.0, SVG Export Plug-In . SVG Version: 1.2.0 Build 709)  -->
  <g>
    <g id="Layer_3">
      <g>
        <path class="cls-2" d="M96.1,19.1v479.4h320.3V19.1H96.1ZM339,341.8h-166v-166h166v166Z"/>
        <polygon class="cls-1" points="295.7 259.1 265 276.6 234.8 294.1 234.8 259.1 234.8 224 265 241.6 295.7 259.1"/>
        <path class="cls-2" d="M.2,19.1v479.4h95.9V19.1H.2ZM81,471.8H15.3v-57.9h65.7v57.9ZM81,398.3H15.3v-57.9h65.7v57.9ZM81,324.8H15.3v-57.9h65.7v57.9ZM81,250.8H15.3v-57.4h65.7v57.4ZM81,177.3H15.3v-57.9h65.7v57.9ZM81,103.8H15.3v-57.9h65.7v57.9Z"/>
        <path class="cls-2" d="M416.4,19.1v479.4h95.4V19.1h-95.4ZM497.1,471.8h-66.2v-57.9h66.2v57.9ZM497.1,398.3h-66.2v-57.9h66.2v57.9ZM497.1,324.8h-66.2v-57.9h66.2v57.9ZM497.1,250.8h-66.2v-57.4h66.2v57.4ZM497.1,177.3h-66.2v-57.9h66.2v57.9ZM497.1,103.8h-66.2v-57.9h66.2v57.9Z"/>
      </g>
    </g>
  </g>
</svg>