<?xml version="1.0" encoding="UTF-8"?>
<svg xmlns="http://www.w3.org/2000/svg" version="1.1" viewBox="0 0 512 512">
  <defs>
    <style>
      .cls-1 {
        fill: #d63447;
      }

      .cls-1, .cls-2 {
        fill-rule: evenodd;
      }

      .cls-2 {
        fill: #515151;
      }
    </style>
  </defs>
  <!-- Generator: Adobe Illustrator 28.6.0, SVG Export Plug-In . SVG Version: 1.2.0 Build 709)  -->
  <g>
    <g id="Layer_2">
      <g>
        <path class="cls-2" d="M386.7,227.4l-156.6,158.6c-2.3,2.3-6.3.9-6.5-2.4l-6-69.8c0-.1,0-.2,0-.3l-.4-61.7-.8-53-.4-.4,4-147.5c0-3.3,4.1-5,6.5-2.7l41,39c2.2,2.1,1.2,5.7-1.7,6.5h0c-2.8.7-3.8,4.1-1.9,6.3l9.7,10.9c35.8,41.2,73.6,78.2,112.7,116.1l.4.4Z"/>
        <path class="cls-1" d="M141.9,448l-18.2-23.7c-1.1-1.5-1-3.5.2-4.9l7.7-8.6c2-2.2,5.6-1.4,6.5,1.4l10.5,32.3c1.3,4.1-4.1,6.9-6.7,3.5Z"/>
        <path class="cls-2" d="M453.6,78.4l35.2,34.5c2.1,2.1,1.2,5.7-1.7,6.4l-48.4,12.6c-2.9.7-5.5-1.9-4.7-4.7l13.2-47.1c.8-2.8,4.3-3.7,6.4-1.7Z"/>
        <path class="cls-2" d="M197.1,180.8l-60.7-56.9c-.8-.8-1.9-1.1-3-1l-79.6,8.8c-1.2.1-2.4-.3-3.2-1.2l-7.7-8.3c-2.3-2.5-.5-6.5,2.9-6.4l79.7,2.3L45.6,36.7c-2.4-2.4-.7-6.5,2.7-6.5h155.6c2.2,0,3.9,1.8,3.8,3.9l-4.2,144c0,3.3-4,4.9-6.4,2.7Z"/>
        <path class="cls-1" d="M202.5,203.2c.8.7,1.2,1.7,1.2,2.8l.4,45.9.3,36.7c0,3.5-4.3,5.2-6.7,2.6L67.9,149.3c-2.1-2.3-.7-6,2.4-6.4l58.5-6.5c1.1-.1,2.2.2,3,1l70.7,65.8Z"/>
        <path class="cls-1" d="M390.5,213.7c-37.9-37.1-67-65.3-103.5-106.4-1.9-2.2-.9-5.6,1.9-6.3l143.1-36c2.9-.7,5.4,1.9,4.6,4.7l-39.8,142.2c-.8,2.8-4.3,3.7-6.4,1.7Z"/>
        <path class="cls-2" d="M211.1,405.4l-18.2,15.7c-1.1.9-1.6,2.4-1.2,3.8l8.9,35.1c1,4.1-4.4,6.6-6.9,3.1l-8.8-12.8c-2.2-3.1-7.1-1.5-7,2.3l.4,17.8c0,4.4-6.1,5.5-7.5,1.3l-24.5-74.7c-.4-1.3-.1-2.7.8-3.7l47.5-53.4c1.3-1.5,1.3-3.7,0-5.2l-113.7-121.7c-2.7-2.9.2-7.4,3.9-6.3l24.5,7.4c.7.2,1.3.6,1.7,1.1l93.1,101.8c.6.6.9,1.4,1,2.2l7.3,83c.1,1.2-.4,2.4-1.3,3.2Z"/>
      </g>
    </g>
  </g>
</svg>