<?xml version="1.0" encoding="UTF-8"?>
<svg xmlns="http://www.w3.org/2000/svg" version="1.1" viewBox="0 0 512 512">
  <defs>
    <style>
      .cls-1, .cls-2 {
        fill: #515151;
      }

      .cls-3 {
        fill: #d63447;
      }

      .cls-3, .cls-2 {
        fill-rule: evenodd;
      }
    </style>
  </defs>
  <!-- Generator: Adobe Illustrator 28.6.0, SVG Export Plug-In . SVG Version: 1.2.0 Build 709)  -->
  <g>
    <g id="Layer_3">
      <g>
        <rect class="cls-1" x="206.1" y="196.2" width="99.7" height="252"/>
        <polygon class="cls-2" points="254.9 111.3 277.6 149.7 300.7 188.5 254.9 188.5 208.7 188.5 231.8 149.7 254.9 111.3"/>
        <polygon class="cls-2" points="254.9 110.9 258.7 118 262.9 124.7 254.9 124.7 246.6 124.7 250.7 118 254.9 110.9"/>
        <path class="cls-3" d="M274.1,76.3h208.7c.6-1.3,1.6-2.2,2.6-3.2,2.6-2.6,6.4-4.5,10.6-4.5s7.7,1.9,10.6,4.5c2.6,2.6,4.2,6.4,4.2,10.6s-1.6,7.7-4.2,10.6c-2.9,2.6-6.4,4.5-10.6,4.5s-8-1.9-10.6-4.5h0c-.9-1-1.9-1.9-2.6-3.2h-155.8c14.1,6.1,27.2,13.8,39.1,23.1,27.3,21.5,48.1,50.3,59.3,84,2.9.6,5.5,1.9,7.4,3.9,2.6,2.9,4.5,6.4,4.5,10.6s-1.9,8-4.5,10.6c-2.6,2.9-6.4,4.5-10.6,4.5s-7.7-1.6-10.6-4.5c-2.6-2.6-4.5-6.4-4.5-10.6s1.6-7.7,4.5-10.2c-10.6-31.1-30.1-57.7-55.5-77.3-23.4-17.9-51.6-29.8-82.4-33-.9,1.9-2.2,3.9-3.8,5.5h0c-3.5,3.5-8.7,5.8-14.1,5.8s-10.3-2.2-13.8-5.8h0c-1.6-1.6-2.9-3.5-3.9-5.5-30.8,3.2-59,15.1-82.4,33-25.3,19.6-44.9,46.2-55.5,77.3,2.6,2.6,4.2,6.4,4.2,10.2s-1.6,8-4.2,10.6c-2.9,2.9-6.4,4.5-10.6,4.5s-8-1.6-10.6-4.5c-2.9-2.6-4.5-6.4-4.5-10.6s1.6-7.7,4.5-10.6c1.9-1.9,4.5-3.2,7-3.9,11.5-33.7,32.4-62.5,59.6-84,11.9-9.3,25-17,39.1-23.1H29.2c-.6,1.3-1.6,2.2-2.6,3.2h0c-2.6,2.6-6.4,4.5-10.6,4.5s-7.7-1.9-10.6-4.5h0c-2.6-2.9-4.2-6.4-4.2-10.6s1.6-8,4.2-10.6c2.9-2.6,6.4-4.5,10.6-4.5s8,1.9,10.6,4.5c1,1,1.9,1.9,2.6,3.2h208.4c1.3-2.6,2.6-4.8,4.5-6.7,3.5-3.5,8.3-5.8,13.8-5.8s10.6,2.2,14.1,5.8c1.9,1.9,3.2,4.2,4.2,6.7h0Z"/>
      </g>
    </g>
  </g>
</svg>